<?xml version="1.0" standalone="no"?>
<!DOCTYPE svg PUBLIC "-//W3C//DTD SVG 20010904//EN"
 "http://www.w3.org/TR/2001/REC-SVG-20010904/DTD/svg10.dtd">
<svg version="1.0" xmlns="http://www.w3.org/2000/svg"
 width="150.000000pt" height="150.000000pt" viewBox="0 0 150.000000 150.000000"
 preserveAspectRatio="xMidYMid meet">
<metadata>
Created by potrace 1.14, written by Peter Selinger 2001-2017
</metadata>
<g transform="translate(0.000000,150.000000) scale(0.100000,-0.100000)"
fill="#000000" stroke="none">
<path d="M621 1480 c-157 -33 -282 -100 -391 -210 -95 -94 -150 -186 -192
-320 -33 -108 -33 -292 0 -400 42 -134 97 -226 192 -320 94 -95 186 -150 320
-192 108 -33 292 -33 400 0 134 42 226 97 320 192 95 94 150 186 192 320 33
108 33 292 0 400 -80 253 -256 431 -507 510 -79 25 -260 35 -334 20z m564
-284 c84 -35 82 -111 -6 -190 -93 -83 -231 -135 -274 -102 -19 14 -19 15 15
27 53 19 172 82 214 114 20 15 44 41 52 56 13 26 13 30 -7 50 -18 18 -28 20
-70 15 -107 -14 -369 -126 -509 -216 -142 -92 -260 -223 -276 -306 -8 -46 8
-64 58 -64 39 0 39 0 73 73 18 39 39 92 46 117 17 63 32 77 64 62 33 -15 34
-68 0 -139 -13 -29 -21 -53 -16 -53 4 0 43 29 86 65 82 69 128 83 155 50 11
-13 9 -20 -15 -45 -32 -34 -124 -84 -198 -109 l-52 -17 -60 -122 c-33 -67 -71
-132 -83 -146 -24 -25 -79 -53 -87 -44 -3 2 22 65 55 139 38 86 55 135 47 136
-71 10 -93 18 -113 38 -108 108 156 414 473 550 161 69 345 95 428 61z"/>
</g>
</svg>
